%TF.GenerationSoftware,KiCad,Pcbnew,8.0.0*%
%TF.CreationDate,2024-11-02T12:10:27-04:00*%
%TF.ProjectId,PCB_Draft_2,5043425f-4472-4616-9674-5f322e6b6963,rev?*%
%TF.SameCoordinates,Original*%
%TF.FileFunction,Copper,L2,Bot*%
%TF.FilePolarity,Positive*%
%FSLAX46Y46*%
G04 Gerber Fmt 4.6, Leading zero omitted, Abs format (unit mm)*
G04 Created by KiCad (PCBNEW 8.0.0) date 2024-11-02 12:10:27*
%MOMM*%
%LPD*%
G01*
G04 APERTURE LIST*
%TA.AperFunction,ComponentPad*%
%ADD10C,1.508000*%
%TD*%
%TA.AperFunction,ComponentPad*%
%ADD11R,1.700000X1.700000*%
%TD*%
%TA.AperFunction,ComponentPad*%
%ADD12O,1.700000X1.700000*%
%TD*%
%TA.AperFunction,ViaPad*%
%ADD13C,0.600000*%
%TD*%
%TA.AperFunction,Conductor*%
%ADD14C,0.200000*%
%TD*%
G04 APERTURE END LIST*
D10*
%TO.P,SW13,2,2*%
%TO.N,/GND*%
X90743682Y-92654749D03*
%TO.P,SW13,1,1*%
%TO.N,/D14*%
X85743682Y-92654749D03*
%TD*%
D11*
%TO.P,J4,1,Pin_1*%
%TO.N,/D15*%
X79873417Y-93935455D03*
D12*
%TO.P,J4,2,Pin_2*%
%TO.N,/D14*%
X79873417Y-91395455D03*
%TO.P,J4,3,Pin_3*%
%TO.N,/VIN*%
X79873417Y-88855455D03*
%TO.P,J4,4,Pin_4*%
%TO.N,/GND*%
X79873417Y-86315455D03*
%TO.P,J4,5,Pin_5*%
%TO.N,/RST*%
X79873417Y-83775455D03*
%TO.P,J4,6,Pin_6*%
%TO.N,/VCC*%
X79873417Y-81235455D03*
%TO.P,J4,7,Pin_7*%
%TO.N,/NC*%
X79873417Y-78695455D03*
%TO.P,J4,8,Pin_8*%
X79873417Y-76155455D03*
%TO.P,J4,9,Pin_9*%
%TO.N,/A5*%
X79873417Y-73615455D03*
%TO.P,J4,10,Pin_10*%
%TO.N,/A4*%
X79873417Y-71075455D03*
%TO.P,J4,11,Pin_11*%
%TO.N,/A3*%
X79873417Y-68535455D03*
%TO.P,J4,12,Pin_12*%
%TO.N,/A2*%
X79873417Y-65995455D03*
%TO.P,J4,13,Pin_13*%
%TO.N,/A1*%
X79873417Y-63455455D03*
%TO.P,J4,14,Pin_14*%
%TO.N,/A0*%
X79873417Y-60915455D03*
%TO.P,J4,15,Pin_15*%
%TO.N,/REF*%
X79873417Y-58375455D03*
%TO.P,J4,16,Pin_16*%
%TO.N,/3V*%
X79873417Y-55835455D03*
%TO.P,J4,17,Pin_17*%
%TO.N,/D13*%
X79873417Y-53295455D03*
%TD*%
D10*
%TO.P,SW15,1,1*%
%TO.N,/D15*%
X87416000Y-111539427D03*
%TO.P,SW15,2,2*%
%TO.N,/GND*%
X92416000Y-111539427D03*
%TD*%
%TO.P,SW1,1,1*%
%TO.N,/D13*%
X84277054Y-64530823D03*
%TO.P,SW1,2,2*%
%TO.N,/GND*%
X89277054Y-64530823D03*
%TD*%
%TO.P,SW2,1,1*%
%TO.N,/A5*%
X84277054Y-74690823D03*
%TO.P,SW2,2,2*%
%TO.N,/GND*%
X89277054Y-74690823D03*
%TD*%
%TO.P,SW16,1,1*%
%TO.N,/D10*%
X101560425Y-92499983D03*
%TO.P,SW16,2,2*%
%TO.N,/GND*%
X106560425Y-92499983D03*
%TD*%
D11*
%TO.P,J1,1,Pin_1*%
%TO.N,/A0*%
X85523050Y-129540000D03*
D12*
%TO.P,J1,2,Pin_2*%
%TO.N,/A1*%
X85523050Y-127000000D03*
%TO.P,J1,3,Pin_3*%
%TO.N,/A2*%
X85523050Y-124460000D03*
%TO.P,J1,4,Pin_4*%
%TO.N,/VCC*%
X85523050Y-121920000D03*
%TO.P,J1,5,Pin_5*%
%TO.N,/GND*%
X85523050Y-119380000D03*
%TD*%
D10*
%TO.P,SW4,1,1*%
%TO.N,/D12*%
X99009054Y-64530823D03*
%TO.P,SW4,2,2*%
%TO.N,/GND*%
X104009054Y-64530823D03*
%TD*%
%TO.P,SW14,1,1*%
%TO.N,/D9*%
X104180000Y-111539427D03*
%TO.P,SW14,2,2*%
%TO.N,/GND*%
X109180000Y-111539427D03*
%TD*%
%TO.P,SW7,1,1*%
%TO.N,/D8*%
X104180000Y-130589427D03*
%TO.P,SW7,2,2*%
%TO.N,/GND*%
X109180000Y-130589427D03*
%TD*%
D11*
%TO.P,J17,1,Pin_1*%
%TO.N,/D4*%
X71120000Y-119380000D03*
D12*
%TO.P,J17,2,Pin_2*%
%TO.N,/D5*%
X71120000Y-121920000D03*
%TO.P,J17,3,Pin_3*%
%TO.N,/D6*%
X71120000Y-124460000D03*
%TO.P,J17,4,Pin_4*%
%TO.N,/D7*%
X71120000Y-127000000D03*
%TD*%
D11*
%TO.P,J2,1,Pin_1*%
%TO.N,/D8*%
X100471417Y-130438924D03*
D12*
%TO.P,J2,2,Pin_2*%
%TO.N,/A4*%
X97931417Y-130438924D03*
%TO.P,J2,3,Pin_3*%
%TO.N,/A3*%
X95391417Y-130438924D03*
%TO.P,J2,4,Pin_4*%
%TO.N,/VCC*%
X92851417Y-130438924D03*
%TO.P,J2,5,Pin_5*%
%TO.N,/GND*%
X90311417Y-130438924D03*
%TD*%
D11*
%TO.P,J18,1,Pin_1*%
%TO.N,/D16*%
X78740000Y-121920000D03*
D12*
%TO.P,J18,2,Pin_2*%
%TO.N,/D1*%
X78740000Y-124460000D03*
%TO.P,J18,3,Pin_3*%
%TO.N,/D3*%
X78740000Y-127000000D03*
%TO.P,J18,4,Pin_4*%
%TO.N,/GND*%
X78740000Y-129540000D03*
%TD*%
D10*
%TO.P,SW3,1,1*%
%TO.N,/D11*%
X99009054Y-74690823D03*
%TO.P,SW3,2,2*%
%TO.N,/GND*%
X104009054Y-74690823D03*
%TD*%
D11*
%TO.P,J3,1,Pin_1*%
%TO.N,/D12*%
X64633417Y-53248045D03*
D12*
%TO.P,J3,2,Pin_2*%
%TO.N,/D11*%
X64633417Y-55788045D03*
%TO.P,J3,3,Pin_3*%
%TO.N,/D10*%
X64633417Y-58328045D03*
%TO.P,J3,4,Pin_4*%
%TO.N,/D9*%
X64633417Y-60868045D03*
%TO.P,J3,5,Pin_5*%
%TO.N,/D8*%
X64633417Y-63408045D03*
%TO.P,J3,6,Pin_6*%
%TO.N,/D7*%
X64633417Y-65948045D03*
%TO.P,J3,7,Pin_7*%
%TO.N,/D6*%
X64633417Y-68488045D03*
%TO.P,J3,8,Pin_8*%
%TO.N,/D5*%
X64633417Y-71028045D03*
%TO.P,J3,9,Pin_9*%
%TO.N,/D4*%
X64633417Y-73568045D03*
%TO.P,J3,10,Pin_10*%
%TO.N,/D3*%
X64633417Y-76108045D03*
%TO.P,J3,11,Pin_11*%
%TO.N,/D2*%
X64633417Y-78648045D03*
%TO.P,J3,12,Pin_12*%
%TO.N,/GND*%
X64633417Y-81188045D03*
%TO.P,J3,13,Pin_13*%
%TO.N,/RST*%
X64633417Y-83728045D03*
%TO.P,J3,14,Pin_14*%
%TO.N,/D0*%
X64633417Y-86268045D03*
%TO.P,J3,15,Pin_15*%
%TO.N,/D1*%
X64633417Y-88808045D03*
%TO.P,J3,16,Pin_16*%
%TO.N,/D17*%
X64633417Y-91348045D03*
%TO.P,J3,17,Pin_17*%
%TO.N,/D16*%
X64633417Y-93888045D03*
%TD*%
D13*
%TO.N,/GND*%
X88900000Y-121920000D03*
%TD*%
D14*
%TO.N,/VCC*%
X81280000Y-121920000D02*
X85523050Y-121920000D01*
X81280000Y-121920000D02*
X81280000Y-129540000D01*
X81280000Y-116840000D02*
X81280000Y-121920000D01*
X93980000Y-131567507D02*
X92851417Y-130438924D01*
X93980000Y-134620000D02*
X93980000Y-131567507D01*
X88900000Y-134620000D02*
X93980000Y-134620000D01*
X85650201Y-131370201D02*
X88900000Y-134620000D01*
X83110201Y-131370201D02*
X85650201Y-131370201D01*
X81280000Y-129540000D02*
X83110201Y-131370201D01*
X76200000Y-116840000D02*
X81280000Y-116840000D01*
X76200000Y-81280000D02*
X76200000Y-116840000D01*
X79828872Y-81280000D02*
X76200000Y-81280000D01*
X79873417Y-81235455D02*
X79828872Y-81280000D01*
%TO.N,/GND*%
X88900000Y-121920000D02*
X99060000Y-121920000D01*
%TD*%
M02*
