%TF.GenerationSoftware,KiCad,Pcbnew,8.0.0*%
%TF.CreationDate,2024-11-02T12:10:50-04:00*%
%TF.ProjectId,PCB_Draft_2,5043425f-4472-4616-9674-5f322e6b6963,rev?*%
%TF.SameCoordinates,Original*%
%TF.FileFunction,Drillmap*%
%TF.FilePolarity,Positive*%
%FSLAX45Y45*%
G04 Gerber Fmt 4.5, Leading zero omitted, Abs format (unit mm)*
G04 Created by KiCad (PCBNEW 8.0.0) date 2024-11-02 12:10:50*
%MOMM*%
%LPD*%
G01*
G04 APERTURE LIST*
%ADD10C,0.050000*%
%ADD11C,0.200000*%
%ADD12C,0.100000*%
G04 APERTURE END LIST*
D10*
X8481881Y-13324832D02*
G75*
G02*
X8227881Y-13324832I-127000J0D01*
G01*
X8227881Y-13324832D02*
G75*
G02*
X8481881Y-13324832I127000J0D01*
G01*
X6460000Y-4669279D02*
X4475710Y-10391604D01*
X6460000Y-4669279D02*
X11176000Y-4669279D01*
X11037610Y-4921797D02*
G75*
G02*
X10783610Y-4921797I-127000J0D01*
G01*
X10783610Y-4921797D02*
G75*
G02*
X11037610Y-4921797I127000J0D01*
G01*
X11176000Y-13559279D02*
X8255000Y-13559279D01*
X11176000Y-4669279D02*
X11176000Y-13559279D01*
X8254719Y-13559564D02*
X5232400Y-11943279D01*
X4475710Y-10391604D02*
X5232400Y-11943279D01*
X4861002Y-10395332D02*
G75*
G02*
X4607002Y-10395332I-127000J0D01*
G01*
X4607002Y-10395332D02*
G75*
G02*
X4861002Y-10395332I127000J0D01*
G01*
X5542291Y-11763036D02*
G75*
G02*
X5288291Y-11763036I-127000J0D01*
G01*
X5288291Y-11763036D02*
G75*
G02*
X5542291Y-11763036I127000J0D01*
G01*
X6761694Y-4916289D02*
G75*
G02*
X6507694Y-4916289I-127000J0D01*
G01*
X6507694Y-4916289D02*
G75*
G02*
X6761694Y-4916289I127000J0D01*
G01*
D11*
D12*
X8875000Y-12177000D02*
X8905000Y-12207000D01*
X8905000Y-12177000D02*
X8875000Y-12207000D01*
X6513342Y-5324805D02*
G75*
G02*
X6413342Y-5324805I-50000J0D01*
G01*
X6413342Y-5324805D02*
G75*
G02*
X6513342Y-5324805I50000J0D01*
G01*
X6513342Y-5578805D02*
G75*
G02*
X6413342Y-5578805I-50000J0D01*
G01*
X6413342Y-5578805D02*
G75*
G02*
X6513342Y-5578805I50000J0D01*
G01*
X6513342Y-5832804D02*
G75*
G02*
X6413342Y-5832804I-50000J0D01*
G01*
X6413342Y-5832804D02*
G75*
G02*
X6513342Y-5832804I50000J0D01*
G01*
X6513342Y-6086804D02*
G75*
G02*
X6413342Y-6086804I-50000J0D01*
G01*
X6413342Y-6086804D02*
G75*
G02*
X6513342Y-6086804I50000J0D01*
G01*
X6513342Y-6340804D02*
G75*
G02*
X6413342Y-6340804I-50000J0D01*
G01*
X6413342Y-6340804D02*
G75*
G02*
X6513342Y-6340804I50000J0D01*
G01*
X6513342Y-6594804D02*
G75*
G02*
X6413342Y-6594804I-50000J0D01*
G01*
X6413342Y-6594804D02*
G75*
G02*
X6513342Y-6594804I50000J0D01*
G01*
X6513342Y-6848804D02*
G75*
G02*
X6413342Y-6848804I-50000J0D01*
G01*
X6413342Y-6848804D02*
G75*
G02*
X6513342Y-6848804I50000J0D01*
G01*
X6513342Y-7102804D02*
G75*
G02*
X6413342Y-7102804I-50000J0D01*
G01*
X6413342Y-7102804D02*
G75*
G02*
X6513342Y-7102804I50000J0D01*
G01*
X6513342Y-7356804D02*
G75*
G02*
X6413342Y-7356804I-50000J0D01*
G01*
X6413342Y-7356804D02*
G75*
G02*
X6513342Y-7356804I50000J0D01*
G01*
X6513342Y-7610804D02*
G75*
G02*
X6413342Y-7610804I-50000J0D01*
G01*
X6413342Y-7610804D02*
G75*
G02*
X6513342Y-7610804I50000J0D01*
G01*
X6513342Y-7864804D02*
G75*
G02*
X6413342Y-7864804I-50000J0D01*
G01*
X6413342Y-7864804D02*
G75*
G02*
X6513342Y-7864804I50000J0D01*
G01*
X6513342Y-8118804D02*
G75*
G02*
X6413342Y-8118804I-50000J0D01*
G01*
X6413342Y-8118804D02*
G75*
G02*
X6513342Y-8118804I50000J0D01*
G01*
X6513342Y-8372804D02*
G75*
G02*
X6413342Y-8372804I-50000J0D01*
G01*
X6413342Y-8372804D02*
G75*
G02*
X6513342Y-8372804I50000J0D01*
G01*
X6513342Y-8626805D02*
G75*
G02*
X6413342Y-8626805I-50000J0D01*
G01*
X6413342Y-8626805D02*
G75*
G02*
X6513342Y-8626805I50000J0D01*
G01*
X6513342Y-8880805D02*
G75*
G02*
X6413342Y-8880805I-50000J0D01*
G01*
X6413342Y-8880805D02*
G75*
G02*
X6513342Y-8880805I50000J0D01*
G01*
X6513342Y-9134805D02*
G75*
G02*
X6413342Y-9134805I-50000J0D01*
G01*
X6413342Y-9134805D02*
G75*
G02*
X6513342Y-9134805I50000J0D01*
G01*
X6513342Y-9388805D02*
G75*
G02*
X6413342Y-9388805I-50000J0D01*
G01*
X6413342Y-9388805D02*
G75*
G02*
X6513342Y-9388805I50000J0D01*
G01*
X7162000Y-11938000D02*
G75*
G02*
X7062000Y-11938000I-50000J0D01*
G01*
X7062000Y-11938000D02*
G75*
G02*
X7162000Y-11938000I50000J0D01*
G01*
X7162000Y-12192000D02*
G75*
G02*
X7062000Y-12192000I-50000J0D01*
G01*
X7062000Y-12192000D02*
G75*
G02*
X7162000Y-12192000I50000J0D01*
G01*
X7162000Y-12446000D02*
G75*
G02*
X7062000Y-12446000I-50000J0D01*
G01*
X7062000Y-12446000D02*
G75*
G02*
X7162000Y-12446000I50000J0D01*
G01*
X7162000Y-12700000D02*
G75*
G02*
X7062000Y-12700000I-50000J0D01*
G01*
X7062000Y-12700000D02*
G75*
G02*
X7162000Y-12700000I50000J0D01*
G01*
X7924000Y-12192000D02*
G75*
G02*
X7824000Y-12192000I-50000J0D01*
G01*
X7824000Y-12192000D02*
G75*
G02*
X7924000Y-12192000I50000J0D01*
G01*
X7924000Y-12446000D02*
G75*
G02*
X7824000Y-12446000I-50000J0D01*
G01*
X7824000Y-12446000D02*
G75*
G02*
X7924000Y-12446000I50000J0D01*
G01*
X7924000Y-12700000D02*
G75*
G02*
X7824000Y-12700000I-50000J0D01*
G01*
X7824000Y-12700000D02*
G75*
G02*
X7924000Y-12700000I50000J0D01*
G01*
X7924000Y-12954000D02*
G75*
G02*
X7824000Y-12954000I-50000J0D01*
G01*
X7824000Y-12954000D02*
G75*
G02*
X7924000Y-12954000I50000J0D01*
G01*
X8037342Y-5329546D02*
G75*
G02*
X7937342Y-5329546I-50000J0D01*
G01*
X7937342Y-5329546D02*
G75*
G02*
X8037342Y-5329546I50000J0D01*
G01*
X8037342Y-5583546D02*
G75*
G02*
X7937342Y-5583546I-50000J0D01*
G01*
X7937342Y-5583546D02*
G75*
G02*
X8037342Y-5583546I50000J0D01*
G01*
X8037342Y-5837545D02*
G75*
G02*
X7937342Y-5837545I-50000J0D01*
G01*
X7937342Y-5837545D02*
G75*
G02*
X8037342Y-5837545I50000J0D01*
G01*
X8037342Y-6091545D02*
G75*
G02*
X7937342Y-6091545I-50000J0D01*
G01*
X7937342Y-6091545D02*
G75*
G02*
X8037342Y-6091545I50000J0D01*
G01*
X8037342Y-6345545D02*
G75*
G02*
X7937342Y-6345545I-50000J0D01*
G01*
X7937342Y-6345545D02*
G75*
G02*
X8037342Y-6345545I50000J0D01*
G01*
X8037342Y-6599545D02*
G75*
G02*
X7937342Y-6599545I-50000J0D01*
G01*
X7937342Y-6599545D02*
G75*
G02*
X8037342Y-6599545I50000J0D01*
G01*
X8037342Y-6853545D02*
G75*
G02*
X7937342Y-6853545I-50000J0D01*
G01*
X7937342Y-6853545D02*
G75*
G02*
X8037342Y-6853545I50000J0D01*
G01*
X8037342Y-7107545D02*
G75*
G02*
X7937342Y-7107545I-50000J0D01*
G01*
X7937342Y-7107545D02*
G75*
G02*
X8037342Y-7107545I50000J0D01*
G01*
X8037342Y-7361545D02*
G75*
G02*
X7937342Y-7361545I-50000J0D01*
G01*
X7937342Y-7361545D02*
G75*
G02*
X8037342Y-7361545I50000J0D01*
G01*
X8037342Y-7615545D02*
G75*
G02*
X7937342Y-7615545I-50000J0D01*
G01*
X7937342Y-7615545D02*
G75*
G02*
X8037342Y-7615545I50000J0D01*
G01*
X8037342Y-7869545D02*
G75*
G02*
X7937342Y-7869545I-50000J0D01*
G01*
X7937342Y-7869545D02*
G75*
G02*
X8037342Y-7869545I50000J0D01*
G01*
X8037342Y-8123545D02*
G75*
G02*
X7937342Y-8123545I-50000J0D01*
G01*
X7937342Y-8123545D02*
G75*
G02*
X8037342Y-8123545I50000J0D01*
G01*
X8037342Y-8377545D02*
G75*
G02*
X7937342Y-8377545I-50000J0D01*
G01*
X7937342Y-8377545D02*
G75*
G02*
X8037342Y-8377545I50000J0D01*
G01*
X8037342Y-8631546D02*
G75*
G02*
X7937342Y-8631546I-50000J0D01*
G01*
X7937342Y-8631546D02*
G75*
G02*
X8037342Y-8631546I50000J0D01*
G01*
X8037342Y-8885546D02*
G75*
G02*
X7937342Y-8885546I-50000J0D01*
G01*
X7937342Y-8885546D02*
G75*
G02*
X8037342Y-8885546I50000J0D01*
G01*
X8037342Y-9139546D02*
G75*
G02*
X7937342Y-9139546I-50000J0D01*
G01*
X7937342Y-9139546D02*
G75*
G02*
X8037342Y-9139546I50000J0D01*
G01*
X8037342Y-9393546D02*
G75*
G02*
X7937342Y-9393546I-50000J0D01*
G01*
X7937342Y-9393546D02*
G75*
G02*
X8037342Y-9393546I50000J0D01*
G01*
X8477705Y-6453082D02*
G75*
G02*
X8377705Y-6453082I-50000J0D01*
G01*
X8377705Y-6453082D02*
G75*
G02*
X8477705Y-6453082I50000J0D01*
G01*
X8477705Y-7469082D02*
G75*
G02*
X8377705Y-7469082I-50000J0D01*
G01*
X8377705Y-7469082D02*
G75*
G02*
X8477705Y-7469082I50000J0D01*
G01*
X8602305Y-11938000D02*
G75*
G02*
X8502305Y-11938000I-50000J0D01*
G01*
X8502305Y-11938000D02*
G75*
G02*
X8602305Y-11938000I50000J0D01*
G01*
X8602305Y-12192000D02*
G75*
G02*
X8502305Y-12192000I-50000J0D01*
G01*
X8502305Y-12192000D02*
G75*
G02*
X8602305Y-12192000I50000J0D01*
G01*
X8602305Y-12446000D02*
G75*
G02*
X8502305Y-12446000I-50000J0D01*
G01*
X8502305Y-12446000D02*
G75*
G02*
X8602305Y-12446000I50000J0D01*
G01*
X8602305Y-12700000D02*
G75*
G02*
X8502305Y-12700000I-50000J0D01*
G01*
X8502305Y-12700000D02*
G75*
G02*
X8602305Y-12700000I50000J0D01*
G01*
X8602305Y-12954000D02*
G75*
G02*
X8502305Y-12954000I-50000J0D01*
G01*
X8502305Y-12954000D02*
G75*
G02*
X8602305Y-12954000I50000J0D01*
G01*
X8624368Y-9265475D02*
G75*
G02*
X8524368Y-9265475I-50000J0D01*
G01*
X8524368Y-9265475D02*
G75*
G02*
X8624368Y-9265475I50000J0D01*
G01*
X8791600Y-11153943D02*
G75*
G02*
X8691600Y-11153943I-50000J0D01*
G01*
X8691600Y-11153943D02*
G75*
G02*
X8791600Y-11153943I50000J0D01*
G01*
X8977705Y-6453082D02*
G75*
G02*
X8877705Y-6453082I-50000J0D01*
G01*
X8877705Y-6453082D02*
G75*
G02*
X8977705Y-6453082I50000J0D01*
G01*
X8977705Y-7469082D02*
G75*
G02*
X8877705Y-7469082I-50000J0D01*
G01*
X8877705Y-7469082D02*
G75*
G02*
X8977705Y-7469082I50000J0D01*
G01*
X9081142Y-13043892D02*
G75*
G02*
X8981142Y-13043892I-50000J0D01*
G01*
X8981142Y-13043892D02*
G75*
G02*
X9081142Y-13043892I50000J0D01*
G01*
X9124368Y-9265475D02*
G75*
G02*
X9024368Y-9265475I-50000J0D01*
G01*
X9024368Y-9265475D02*
G75*
G02*
X9124368Y-9265475I50000J0D01*
G01*
X9291600Y-11153943D02*
G75*
G02*
X9191600Y-11153943I-50000J0D01*
G01*
X9191600Y-11153943D02*
G75*
G02*
X9291600Y-11153943I50000J0D01*
G01*
X9335142Y-13043892D02*
G75*
G02*
X9235142Y-13043892I-50000J0D01*
G01*
X9235142Y-13043892D02*
G75*
G02*
X9335142Y-13043892I50000J0D01*
G01*
X9589142Y-13043892D02*
G75*
G02*
X9489142Y-13043892I-50000J0D01*
G01*
X9489142Y-13043892D02*
G75*
G02*
X9589142Y-13043892I50000J0D01*
G01*
X9843142Y-13043892D02*
G75*
G02*
X9743142Y-13043892I-50000J0D01*
G01*
X9743142Y-13043892D02*
G75*
G02*
X9843142Y-13043892I50000J0D01*
G01*
X9950905Y-6453082D02*
G75*
G02*
X9850905Y-6453082I-50000J0D01*
G01*
X9850905Y-6453082D02*
G75*
G02*
X9950905Y-6453082I50000J0D01*
G01*
X9950905Y-7469082D02*
G75*
G02*
X9850905Y-7469082I-50000J0D01*
G01*
X9850905Y-7469082D02*
G75*
G02*
X9950905Y-7469082I50000J0D01*
G01*
X10097142Y-13043892D02*
G75*
G02*
X9997142Y-13043892I-50000J0D01*
G01*
X9997142Y-13043892D02*
G75*
G02*
X10097142Y-13043892I50000J0D01*
G01*
X10206043Y-9249998D02*
G75*
G02*
X10106043Y-9249998I-50000J0D01*
G01*
X10106043Y-9249998D02*
G75*
G02*
X10206043Y-9249998I50000J0D01*
G01*
X10450905Y-6453082D02*
G75*
G02*
X10350905Y-6453082I-50000J0D01*
G01*
X10350905Y-6453082D02*
G75*
G02*
X10450905Y-6453082I50000J0D01*
G01*
X10450905Y-7469082D02*
G75*
G02*
X10350905Y-7469082I-50000J0D01*
G01*
X10350905Y-7469082D02*
G75*
G02*
X10450905Y-7469082I50000J0D01*
G01*
X10468000Y-11153943D02*
G75*
G02*
X10368000Y-11153943I-50000J0D01*
G01*
X10368000Y-11153943D02*
G75*
G02*
X10468000Y-11153943I50000J0D01*
G01*
X10468000Y-13058943D02*
G75*
G02*
X10368000Y-13058943I-50000J0D01*
G01*
X10368000Y-13058943D02*
G75*
G02*
X10468000Y-13058943I50000J0D01*
G01*
X10706043Y-9249998D02*
G75*
G02*
X10606043Y-9249998I-50000J0D01*
G01*
X10606043Y-9249998D02*
G75*
G02*
X10706043Y-9249998I50000J0D01*
G01*
X10968000Y-11153943D02*
G75*
G02*
X10868000Y-11153943I-50000J0D01*
G01*
X10868000Y-11153943D02*
G75*
G02*
X10968000Y-11153943I50000J0D01*
G01*
X10968000Y-13058943D02*
G75*
G02*
X10868000Y-13058943I-50000J0D01*
G01*
X10868000Y-13058943D02*
G75*
G02*
X10968000Y-13058943I50000J0D01*
G01*
D11*
X4733987Y-13873548D02*
X4733987Y-13673548D01*
X4733987Y-13673548D02*
X4781606Y-13673548D01*
X4781606Y-13673548D02*
X4810177Y-13683071D01*
X4810177Y-13683071D02*
X4829225Y-13702119D01*
X4829225Y-13702119D02*
X4838749Y-13721167D01*
X4838749Y-13721167D02*
X4848272Y-13759262D01*
X4848272Y-13759262D02*
X4848272Y-13787833D01*
X4848272Y-13787833D02*
X4838749Y-13825929D01*
X4838749Y-13825929D02*
X4829225Y-13844976D01*
X4829225Y-13844976D02*
X4810177Y-13864024D01*
X4810177Y-13864024D02*
X4781606Y-13873548D01*
X4781606Y-13873548D02*
X4733987Y-13873548D01*
X4933987Y-13873548D02*
X4933987Y-13740214D01*
X4933987Y-13778310D02*
X4943511Y-13759262D01*
X4943511Y-13759262D02*
X4953034Y-13749738D01*
X4953034Y-13749738D02*
X4972082Y-13740214D01*
X4972082Y-13740214D02*
X4991130Y-13740214D01*
X5057796Y-13873548D02*
X5057796Y-13740214D01*
X5057796Y-13673548D02*
X5048272Y-13683071D01*
X5048272Y-13683071D02*
X5057796Y-13692595D01*
X5057796Y-13692595D02*
X5067320Y-13683071D01*
X5067320Y-13683071D02*
X5057796Y-13673548D01*
X5057796Y-13673548D02*
X5057796Y-13692595D01*
X5181606Y-13873548D02*
X5162558Y-13864024D01*
X5162558Y-13864024D02*
X5153034Y-13844976D01*
X5153034Y-13844976D02*
X5153034Y-13673548D01*
X5286368Y-13873548D02*
X5267320Y-13864024D01*
X5267320Y-13864024D02*
X5257796Y-13844976D01*
X5257796Y-13844976D02*
X5257796Y-13673548D01*
X5514939Y-13873548D02*
X5514939Y-13673548D01*
X5514939Y-13673548D02*
X5581606Y-13816405D01*
X5581606Y-13816405D02*
X5648272Y-13673548D01*
X5648272Y-13673548D02*
X5648272Y-13873548D01*
X5829225Y-13873548D02*
X5829225Y-13768786D01*
X5829225Y-13768786D02*
X5819701Y-13749738D01*
X5819701Y-13749738D02*
X5800653Y-13740214D01*
X5800653Y-13740214D02*
X5762558Y-13740214D01*
X5762558Y-13740214D02*
X5743510Y-13749738D01*
X5829225Y-13864024D02*
X5810177Y-13873548D01*
X5810177Y-13873548D02*
X5762558Y-13873548D01*
X5762558Y-13873548D02*
X5743510Y-13864024D01*
X5743510Y-13864024D02*
X5733987Y-13844976D01*
X5733987Y-13844976D02*
X5733987Y-13825929D01*
X5733987Y-13825929D02*
X5743510Y-13806881D01*
X5743510Y-13806881D02*
X5762558Y-13797357D01*
X5762558Y-13797357D02*
X5810177Y-13797357D01*
X5810177Y-13797357D02*
X5829225Y-13787833D01*
X5924463Y-13740214D02*
X5924463Y-13940214D01*
X5924463Y-13749738D02*
X5943510Y-13740214D01*
X5943510Y-13740214D02*
X5981606Y-13740214D01*
X5981606Y-13740214D02*
X6000653Y-13749738D01*
X6000653Y-13749738D02*
X6010177Y-13759262D01*
X6010177Y-13759262D02*
X6019701Y-13778310D01*
X6019701Y-13778310D02*
X6019701Y-13835452D01*
X6019701Y-13835452D02*
X6010177Y-13854500D01*
X6010177Y-13854500D02*
X6000653Y-13864024D01*
X6000653Y-13864024D02*
X5981606Y-13873548D01*
X5981606Y-13873548D02*
X5943510Y-13873548D01*
X5943510Y-13873548D02*
X5924463Y-13864024D01*
X6105415Y-13854500D02*
X6114939Y-13864024D01*
X6114939Y-13864024D02*
X6105415Y-13873548D01*
X6105415Y-13873548D02*
X6095891Y-13864024D01*
X6095891Y-13864024D02*
X6105415Y-13854500D01*
X6105415Y-13854500D02*
X6105415Y-13873548D01*
X6105415Y-13749738D02*
X6114939Y-13759262D01*
X6114939Y-13759262D02*
X6105415Y-13768786D01*
X6105415Y-13768786D02*
X6095891Y-13759262D01*
X6095891Y-13759262D02*
X6105415Y-13749738D01*
X6105415Y-13749738D02*
X6105415Y-13768786D01*
D12*
X4443210Y-14187064D02*
X4473210Y-14217064D01*
X4473210Y-14187064D02*
X4443210Y-14217064D01*
D11*
X4772082Y-14093548D02*
X4791130Y-14093548D01*
X4791130Y-14093548D02*
X4810177Y-14103071D01*
X4810177Y-14103071D02*
X4819701Y-14112595D01*
X4819701Y-14112595D02*
X4829225Y-14131643D01*
X4829225Y-14131643D02*
X4838749Y-14169738D01*
X4838749Y-14169738D02*
X4838749Y-14217357D01*
X4838749Y-14217357D02*
X4829225Y-14255452D01*
X4829225Y-14255452D02*
X4819701Y-14274500D01*
X4819701Y-14274500D02*
X4810177Y-14284024D01*
X4810177Y-14284024D02*
X4791130Y-14293548D01*
X4791130Y-14293548D02*
X4772082Y-14293548D01*
X4772082Y-14293548D02*
X4753034Y-14284024D01*
X4753034Y-14284024D02*
X4743511Y-14274500D01*
X4743511Y-14274500D02*
X4733987Y-14255452D01*
X4733987Y-14255452D02*
X4724463Y-14217357D01*
X4724463Y-14217357D02*
X4724463Y-14169738D01*
X4724463Y-14169738D02*
X4733987Y-14131643D01*
X4733987Y-14131643D02*
X4743511Y-14112595D01*
X4743511Y-14112595D02*
X4753034Y-14103071D01*
X4753034Y-14103071D02*
X4772082Y-14093548D01*
X4924463Y-14274500D02*
X4933987Y-14284024D01*
X4933987Y-14284024D02*
X4924463Y-14293548D01*
X4924463Y-14293548D02*
X4914939Y-14284024D01*
X4914939Y-14284024D02*
X4924463Y-14274500D01*
X4924463Y-14274500D02*
X4924463Y-14293548D01*
X5000653Y-14093548D02*
X5124463Y-14093548D01*
X5124463Y-14093548D02*
X5057796Y-14169738D01*
X5057796Y-14169738D02*
X5086368Y-14169738D01*
X5086368Y-14169738D02*
X5105415Y-14179262D01*
X5105415Y-14179262D02*
X5114939Y-14188786D01*
X5114939Y-14188786D02*
X5124463Y-14207833D01*
X5124463Y-14207833D02*
X5124463Y-14255452D01*
X5124463Y-14255452D02*
X5114939Y-14274500D01*
X5114939Y-14274500D02*
X5105415Y-14284024D01*
X5105415Y-14284024D02*
X5086368Y-14293548D01*
X5086368Y-14293548D02*
X5029225Y-14293548D01*
X5029225Y-14293548D02*
X5010177Y-14284024D01*
X5010177Y-14284024D02*
X5000653Y-14274500D01*
X5248272Y-14093548D02*
X5267320Y-14093548D01*
X5267320Y-14093548D02*
X5286368Y-14103071D01*
X5286368Y-14103071D02*
X5295892Y-14112595D01*
X5295892Y-14112595D02*
X5305415Y-14131643D01*
X5305415Y-14131643D02*
X5314939Y-14169738D01*
X5314939Y-14169738D02*
X5314939Y-14217357D01*
X5314939Y-14217357D02*
X5305415Y-14255452D01*
X5305415Y-14255452D02*
X5295892Y-14274500D01*
X5295892Y-14274500D02*
X5286368Y-14284024D01*
X5286368Y-14284024D02*
X5267320Y-14293548D01*
X5267320Y-14293548D02*
X5248272Y-14293548D01*
X5248272Y-14293548D02*
X5229225Y-14284024D01*
X5229225Y-14284024D02*
X5219701Y-14274500D01*
X5219701Y-14274500D02*
X5210177Y-14255452D01*
X5210177Y-14255452D02*
X5200653Y-14217357D01*
X5200653Y-14217357D02*
X5200653Y-14169738D01*
X5200653Y-14169738D02*
X5210177Y-14131643D01*
X5210177Y-14131643D02*
X5219701Y-14112595D01*
X5219701Y-14112595D02*
X5229225Y-14103071D01*
X5229225Y-14103071D02*
X5248272Y-14093548D01*
X5438749Y-14093548D02*
X5457796Y-14093548D01*
X5457796Y-14093548D02*
X5476844Y-14103071D01*
X5476844Y-14103071D02*
X5486368Y-14112595D01*
X5486368Y-14112595D02*
X5495892Y-14131643D01*
X5495892Y-14131643D02*
X5505415Y-14169738D01*
X5505415Y-14169738D02*
X5505415Y-14217357D01*
X5505415Y-14217357D02*
X5495892Y-14255452D01*
X5495892Y-14255452D02*
X5486368Y-14274500D01*
X5486368Y-14274500D02*
X5476844Y-14284024D01*
X5476844Y-14284024D02*
X5457796Y-14293548D01*
X5457796Y-14293548D02*
X5438749Y-14293548D01*
X5438749Y-14293548D02*
X5419701Y-14284024D01*
X5419701Y-14284024D02*
X5410177Y-14274500D01*
X5410177Y-14274500D02*
X5400653Y-14255452D01*
X5400653Y-14255452D02*
X5391130Y-14217357D01*
X5391130Y-14217357D02*
X5391130Y-14169738D01*
X5391130Y-14169738D02*
X5400653Y-14131643D01*
X5400653Y-14131643D02*
X5410177Y-14112595D01*
X5410177Y-14112595D02*
X5419701Y-14103071D01*
X5419701Y-14103071D02*
X5438749Y-14093548D01*
X5591130Y-14293548D02*
X5591130Y-14160214D01*
X5591130Y-14179262D02*
X5600653Y-14169738D01*
X5600653Y-14169738D02*
X5619701Y-14160214D01*
X5619701Y-14160214D02*
X5648272Y-14160214D01*
X5648272Y-14160214D02*
X5667320Y-14169738D01*
X5667320Y-14169738D02*
X5676844Y-14188786D01*
X5676844Y-14188786D02*
X5676844Y-14293548D01*
X5676844Y-14188786D02*
X5686368Y-14169738D01*
X5686368Y-14169738D02*
X5705415Y-14160214D01*
X5705415Y-14160214D02*
X5733987Y-14160214D01*
X5733987Y-14160214D02*
X5753034Y-14169738D01*
X5753034Y-14169738D02*
X5762558Y-14188786D01*
X5762558Y-14188786D02*
X5762558Y-14293548D01*
X5857796Y-14293548D02*
X5857796Y-14160214D01*
X5857796Y-14179262D02*
X5867320Y-14169738D01*
X5867320Y-14169738D02*
X5886368Y-14160214D01*
X5886368Y-14160214D02*
X5914939Y-14160214D01*
X5914939Y-14160214D02*
X5933987Y-14169738D01*
X5933987Y-14169738D02*
X5943511Y-14188786D01*
X5943511Y-14188786D02*
X5943511Y-14293548D01*
X5943511Y-14188786D02*
X5953034Y-14169738D01*
X5953034Y-14169738D02*
X5972082Y-14160214D01*
X5972082Y-14160214D02*
X6000653Y-14160214D01*
X6000653Y-14160214D02*
X6019701Y-14169738D01*
X6019701Y-14169738D02*
X6029225Y-14188786D01*
X6029225Y-14188786D02*
X6029225Y-14293548D01*
X6419701Y-14084024D02*
X6248273Y-14341167D01*
X6676844Y-14093548D02*
X6695892Y-14093548D01*
X6695892Y-14093548D02*
X6714939Y-14103071D01*
X6714939Y-14103071D02*
X6724463Y-14112595D01*
X6724463Y-14112595D02*
X6733987Y-14131643D01*
X6733987Y-14131643D02*
X6743511Y-14169738D01*
X6743511Y-14169738D02*
X6743511Y-14217357D01*
X6743511Y-14217357D02*
X6733987Y-14255452D01*
X6733987Y-14255452D02*
X6724463Y-14274500D01*
X6724463Y-14274500D02*
X6714939Y-14284024D01*
X6714939Y-14284024D02*
X6695892Y-14293548D01*
X6695892Y-14293548D02*
X6676844Y-14293548D01*
X6676844Y-14293548D02*
X6657796Y-14284024D01*
X6657796Y-14284024D02*
X6648273Y-14274500D01*
X6648273Y-14274500D02*
X6638749Y-14255452D01*
X6638749Y-14255452D02*
X6629225Y-14217357D01*
X6629225Y-14217357D02*
X6629225Y-14169738D01*
X6629225Y-14169738D02*
X6638749Y-14131643D01*
X6638749Y-14131643D02*
X6648273Y-14112595D01*
X6648273Y-14112595D02*
X6657796Y-14103071D01*
X6657796Y-14103071D02*
X6676844Y-14093548D01*
X6829225Y-14274500D02*
X6838749Y-14284024D01*
X6838749Y-14284024D02*
X6829225Y-14293548D01*
X6829225Y-14293548D02*
X6819701Y-14284024D01*
X6819701Y-14284024D02*
X6829225Y-14274500D01*
X6829225Y-14274500D02*
X6829225Y-14293548D01*
X6962558Y-14093548D02*
X6981606Y-14093548D01*
X6981606Y-14093548D02*
X7000654Y-14103071D01*
X7000654Y-14103071D02*
X7010177Y-14112595D01*
X7010177Y-14112595D02*
X7019701Y-14131643D01*
X7019701Y-14131643D02*
X7029225Y-14169738D01*
X7029225Y-14169738D02*
X7029225Y-14217357D01*
X7029225Y-14217357D02*
X7019701Y-14255452D01*
X7019701Y-14255452D02*
X7010177Y-14274500D01*
X7010177Y-14274500D02*
X7000654Y-14284024D01*
X7000654Y-14284024D02*
X6981606Y-14293548D01*
X6981606Y-14293548D02*
X6962558Y-14293548D01*
X6962558Y-14293548D02*
X6943511Y-14284024D01*
X6943511Y-14284024D02*
X6933987Y-14274500D01*
X6933987Y-14274500D02*
X6924463Y-14255452D01*
X6924463Y-14255452D02*
X6914939Y-14217357D01*
X6914939Y-14217357D02*
X6914939Y-14169738D01*
X6914939Y-14169738D02*
X6924463Y-14131643D01*
X6924463Y-14131643D02*
X6933987Y-14112595D01*
X6933987Y-14112595D02*
X6943511Y-14103071D01*
X6943511Y-14103071D02*
X6962558Y-14093548D01*
X7219701Y-14293548D02*
X7105415Y-14293548D01*
X7162558Y-14293548D02*
X7162558Y-14093548D01*
X7162558Y-14093548D02*
X7143511Y-14122119D01*
X7143511Y-14122119D02*
X7124463Y-14141167D01*
X7124463Y-14141167D02*
X7105415Y-14150690D01*
X7410177Y-14293548D02*
X7295892Y-14293548D01*
X7353034Y-14293548D02*
X7353034Y-14093548D01*
X7353034Y-14093548D02*
X7333987Y-14122119D01*
X7333987Y-14122119D02*
X7314939Y-14141167D01*
X7314939Y-14141167D02*
X7295892Y-14150690D01*
X7524463Y-14179262D02*
X7505415Y-14169738D01*
X7505415Y-14169738D02*
X7495892Y-14160214D01*
X7495892Y-14160214D02*
X7486368Y-14141167D01*
X7486368Y-14141167D02*
X7486368Y-14131643D01*
X7486368Y-14131643D02*
X7495892Y-14112595D01*
X7495892Y-14112595D02*
X7505415Y-14103071D01*
X7505415Y-14103071D02*
X7524463Y-14093548D01*
X7524463Y-14093548D02*
X7562558Y-14093548D01*
X7562558Y-14093548D02*
X7581606Y-14103071D01*
X7581606Y-14103071D02*
X7591130Y-14112595D01*
X7591130Y-14112595D02*
X7600654Y-14131643D01*
X7600654Y-14131643D02*
X7600654Y-14141167D01*
X7600654Y-14141167D02*
X7591130Y-14160214D01*
X7591130Y-14160214D02*
X7581606Y-14169738D01*
X7581606Y-14169738D02*
X7562558Y-14179262D01*
X7562558Y-14179262D02*
X7524463Y-14179262D01*
X7524463Y-14179262D02*
X7505415Y-14188786D01*
X7505415Y-14188786D02*
X7495892Y-14198310D01*
X7495892Y-14198310D02*
X7486368Y-14217357D01*
X7486368Y-14217357D02*
X7486368Y-14255452D01*
X7486368Y-14255452D02*
X7495892Y-14274500D01*
X7495892Y-14274500D02*
X7505415Y-14284024D01*
X7505415Y-14284024D02*
X7524463Y-14293548D01*
X7524463Y-14293548D02*
X7562558Y-14293548D01*
X7562558Y-14293548D02*
X7581606Y-14284024D01*
X7581606Y-14284024D02*
X7591130Y-14274500D01*
X7591130Y-14274500D02*
X7600654Y-14255452D01*
X7600654Y-14255452D02*
X7600654Y-14217357D01*
X7600654Y-14217357D02*
X7591130Y-14198310D01*
X7591130Y-14198310D02*
X7581606Y-14188786D01*
X7581606Y-14188786D02*
X7562558Y-14179262D01*
X7676844Y-14093548D02*
X7676844Y-14131643D01*
X7753035Y-14093548D02*
X7753035Y-14131643D01*
X8048273Y-14369738D02*
X8038749Y-14360214D01*
X8038749Y-14360214D02*
X8019701Y-14331643D01*
X8019701Y-14331643D02*
X8010177Y-14312595D01*
X8010177Y-14312595D02*
X8000654Y-14284024D01*
X8000654Y-14284024D02*
X7991130Y-14236405D01*
X7991130Y-14236405D02*
X7991130Y-14198310D01*
X7991130Y-14198310D02*
X8000654Y-14150690D01*
X8000654Y-14150690D02*
X8010177Y-14122119D01*
X8010177Y-14122119D02*
X8019701Y-14103071D01*
X8019701Y-14103071D02*
X8038749Y-14074500D01*
X8038749Y-14074500D02*
X8048273Y-14064976D01*
X8229225Y-14293548D02*
X8114939Y-14293548D01*
X8172082Y-14293548D02*
X8172082Y-14093548D01*
X8172082Y-14093548D02*
X8153035Y-14122119D01*
X8153035Y-14122119D02*
X8133987Y-14141167D01*
X8133987Y-14141167D02*
X8114939Y-14150690D01*
X8467320Y-14293548D02*
X8467320Y-14093548D01*
X8553035Y-14293548D02*
X8553035Y-14188786D01*
X8553035Y-14188786D02*
X8543511Y-14169738D01*
X8543511Y-14169738D02*
X8524463Y-14160214D01*
X8524463Y-14160214D02*
X8495892Y-14160214D01*
X8495892Y-14160214D02*
X8476844Y-14169738D01*
X8476844Y-14169738D02*
X8467320Y-14179262D01*
X8676844Y-14293548D02*
X8657797Y-14284024D01*
X8657797Y-14284024D02*
X8648273Y-14274500D01*
X8648273Y-14274500D02*
X8638749Y-14255452D01*
X8638749Y-14255452D02*
X8638749Y-14198310D01*
X8638749Y-14198310D02*
X8648273Y-14179262D01*
X8648273Y-14179262D02*
X8657797Y-14169738D01*
X8657797Y-14169738D02*
X8676844Y-14160214D01*
X8676844Y-14160214D02*
X8705416Y-14160214D01*
X8705416Y-14160214D02*
X8724463Y-14169738D01*
X8724463Y-14169738D02*
X8733987Y-14179262D01*
X8733987Y-14179262D02*
X8743511Y-14198310D01*
X8743511Y-14198310D02*
X8743511Y-14255452D01*
X8743511Y-14255452D02*
X8733987Y-14274500D01*
X8733987Y-14274500D02*
X8724463Y-14284024D01*
X8724463Y-14284024D02*
X8705416Y-14293548D01*
X8705416Y-14293548D02*
X8676844Y-14293548D01*
X8857797Y-14293548D02*
X8838749Y-14284024D01*
X8838749Y-14284024D02*
X8829225Y-14264976D01*
X8829225Y-14264976D02*
X8829225Y-14093548D01*
X9010178Y-14284024D02*
X8991130Y-14293548D01*
X8991130Y-14293548D02*
X8953035Y-14293548D01*
X8953035Y-14293548D02*
X8933987Y-14284024D01*
X8933987Y-14284024D02*
X8924463Y-14264976D01*
X8924463Y-14264976D02*
X8924463Y-14188786D01*
X8924463Y-14188786D02*
X8933987Y-14169738D01*
X8933987Y-14169738D02*
X8953035Y-14160214D01*
X8953035Y-14160214D02*
X8991130Y-14160214D01*
X8991130Y-14160214D02*
X9010178Y-14169738D01*
X9010178Y-14169738D02*
X9019701Y-14188786D01*
X9019701Y-14188786D02*
X9019701Y-14207833D01*
X9019701Y-14207833D02*
X8924463Y-14226881D01*
X9086368Y-14369738D02*
X9095892Y-14360214D01*
X9095892Y-14360214D02*
X9114940Y-14331643D01*
X9114940Y-14331643D02*
X9124463Y-14312595D01*
X9124463Y-14312595D02*
X9133987Y-14284024D01*
X9133987Y-14284024D02*
X9143511Y-14236405D01*
X9143511Y-14236405D02*
X9143511Y-14198310D01*
X9143511Y-14198310D02*
X9133987Y-14150690D01*
X9133987Y-14150690D02*
X9124463Y-14122119D01*
X9124463Y-14122119D02*
X9114940Y-14103071D01*
X9114940Y-14103071D02*
X9095892Y-14074500D01*
X9095892Y-14074500D02*
X9086368Y-14064976D01*
D12*
X4473210Y-14466064D02*
G75*
G02*
X4373210Y-14466064I-50000J0D01*
G01*
X4373210Y-14466064D02*
G75*
G02*
X4473210Y-14466064I50000J0D01*
G01*
D11*
X4838749Y-14557548D02*
X4724463Y-14557548D01*
X4781606Y-14557548D02*
X4781606Y-14357548D01*
X4781606Y-14357548D02*
X4762558Y-14386119D01*
X4762558Y-14386119D02*
X4743511Y-14405167D01*
X4743511Y-14405167D02*
X4724463Y-14414690D01*
X4924463Y-14538500D02*
X4933987Y-14548024D01*
X4933987Y-14548024D02*
X4924463Y-14557548D01*
X4924463Y-14557548D02*
X4914939Y-14548024D01*
X4914939Y-14548024D02*
X4924463Y-14538500D01*
X4924463Y-14538500D02*
X4924463Y-14557548D01*
X5057796Y-14357548D02*
X5076844Y-14357548D01*
X5076844Y-14357548D02*
X5095892Y-14367071D01*
X5095892Y-14367071D02*
X5105415Y-14376595D01*
X5105415Y-14376595D02*
X5114939Y-14395643D01*
X5114939Y-14395643D02*
X5124463Y-14433738D01*
X5124463Y-14433738D02*
X5124463Y-14481357D01*
X5124463Y-14481357D02*
X5114939Y-14519452D01*
X5114939Y-14519452D02*
X5105415Y-14538500D01*
X5105415Y-14538500D02*
X5095892Y-14548024D01*
X5095892Y-14548024D02*
X5076844Y-14557548D01*
X5076844Y-14557548D02*
X5057796Y-14557548D01*
X5057796Y-14557548D02*
X5038749Y-14548024D01*
X5038749Y-14548024D02*
X5029225Y-14538500D01*
X5029225Y-14538500D02*
X5019701Y-14519452D01*
X5019701Y-14519452D02*
X5010177Y-14481357D01*
X5010177Y-14481357D02*
X5010177Y-14433738D01*
X5010177Y-14433738D02*
X5019701Y-14395643D01*
X5019701Y-14395643D02*
X5029225Y-14376595D01*
X5029225Y-14376595D02*
X5038749Y-14367071D01*
X5038749Y-14367071D02*
X5057796Y-14357548D01*
X5248272Y-14357548D02*
X5267320Y-14357548D01*
X5267320Y-14357548D02*
X5286368Y-14367071D01*
X5286368Y-14367071D02*
X5295892Y-14376595D01*
X5295892Y-14376595D02*
X5305415Y-14395643D01*
X5305415Y-14395643D02*
X5314939Y-14433738D01*
X5314939Y-14433738D02*
X5314939Y-14481357D01*
X5314939Y-14481357D02*
X5305415Y-14519452D01*
X5305415Y-14519452D02*
X5295892Y-14538500D01*
X5295892Y-14538500D02*
X5286368Y-14548024D01*
X5286368Y-14548024D02*
X5267320Y-14557548D01*
X5267320Y-14557548D02*
X5248272Y-14557548D01*
X5248272Y-14557548D02*
X5229225Y-14548024D01*
X5229225Y-14548024D02*
X5219701Y-14538500D01*
X5219701Y-14538500D02*
X5210177Y-14519452D01*
X5210177Y-14519452D02*
X5200653Y-14481357D01*
X5200653Y-14481357D02*
X5200653Y-14433738D01*
X5200653Y-14433738D02*
X5210177Y-14395643D01*
X5210177Y-14395643D02*
X5219701Y-14376595D01*
X5219701Y-14376595D02*
X5229225Y-14367071D01*
X5229225Y-14367071D02*
X5248272Y-14357548D01*
X5438749Y-14357548D02*
X5457796Y-14357548D01*
X5457796Y-14357548D02*
X5476844Y-14367071D01*
X5476844Y-14367071D02*
X5486368Y-14376595D01*
X5486368Y-14376595D02*
X5495892Y-14395643D01*
X5495892Y-14395643D02*
X5505415Y-14433738D01*
X5505415Y-14433738D02*
X5505415Y-14481357D01*
X5505415Y-14481357D02*
X5495892Y-14519452D01*
X5495892Y-14519452D02*
X5486368Y-14538500D01*
X5486368Y-14538500D02*
X5476844Y-14548024D01*
X5476844Y-14548024D02*
X5457796Y-14557548D01*
X5457796Y-14557548D02*
X5438749Y-14557548D01*
X5438749Y-14557548D02*
X5419701Y-14548024D01*
X5419701Y-14548024D02*
X5410177Y-14538500D01*
X5410177Y-14538500D02*
X5400653Y-14519452D01*
X5400653Y-14519452D02*
X5391130Y-14481357D01*
X5391130Y-14481357D02*
X5391130Y-14433738D01*
X5391130Y-14433738D02*
X5400653Y-14395643D01*
X5400653Y-14395643D02*
X5410177Y-14376595D01*
X5410177Y-14376595D02*
X5419701Y-14367071D01*
X5419701Y-14367071D02*
X5438749Y-14357548D01*
X5591130Y-14557548D02*
X5591130Y-14424214D01*
X5591130Y-14443262D02*
X5600653Y-14433738D01*
X5600653Y-14433738D02*
X5619701Y-14424214D01*
X5619701Y-14424214D02*
X5648272Y-14424214D01*
X5648272Y-14424214D02*
X5667320Y-14433738D01*
X5667320Y-14433738D02*
X5676844Y-14452786D01*
X5676844Y-14452786D02*
X5676844Y-14557548D01*
X5676844Y-14452786D02*
X5686368Y-14433738D01*
X5686368Y-14433738D02*
X5705415Y-14424214D01*
X5705415Y-14424214D02*
X5733987Y-14424214D01*
X5733987Y-14424214D02*
X5753034Y-14433738D01*
X5753034Y-14433738D02*
X5762558Y-14452786D01*
X5762558Y-14452786D02*
X5762558Y-14557548D01*
X5857796Y-14557548D02*
X5857796Y-14424214D01*
X5857796Y-14443262D02*
X5867320Y-14433738D01*
X5867320Y-14433738D02*
X5886368Y-14424214D01*
X5886368Y-14424214D02*
X5914939Y-14424214D01*
X5914939Y-14424214D02*
X5933987Y-14433738D01*
X5933987Y-14433738D02*
X5943511Y-14452786D01*
X5943511Y-14452786D02*
X5943511Y-14557548D01*
X5943511Y-14452786D02*
X5953034Y-14433738D01*
X5953034Y-14433738D02*
X5972082Y-14424214D01*
X5972082Y-14424214D02*
X6000653Y-14424214D01*
X6000653Y-14424214D02*
X6019701Y-14433738D01*
X6019701Y-14433738D02*
X6029225Y-14452786D01*
X6029225Y-14452786D02*
X6029225Y-14557548D01*
X6419701Y-14348024D02*
X6248273Y-14605167D01*
X6676844Y-14357548D02*
X6695892Y-14357548D01*
X6695892Y-14357548D02*
X6714939Y-14367071D01*
X6714939Y-14367071D02*
X6724463Y-14376595D01*
X6724463Y-14376595D02*
X6733987Y-14395643D01*
X6733987Y-14395643D02*
X6743511Y-14433738D01*
X6743511Y-14433738D02*
X6743511Y-14481357D01*
X6743511Y-14481357D02*
X6733987Y-14519452D01*
X6733987Y-14519452D02*
X6724463Y-14538500D01*
X6724463Y-14538500D02*
X6714939Y-14548024D01*
X6714939Y-14548024D02*
X6695892Y-14557548D01*
X6695892Y-14557548D02*
X6676844Y-14557548D01*
X6676844Y-14557548D02*
X6657796Y-14548024D01*
X6657796Y-14548024D02*
X6648273Y-14538500D01*
X6648273Y-14538500D02*
X6638749Y-14519452D01*
X6638749Y-14519452D02*
X6629225Y-14481357D01*
X6629225Y-14481357D02*
X6629225Y-14433738D01*
X6629225Y-14433738D02*
X6638749Y-14395643D01*
X6638749Y-14395643D02*
X6648273Y-14376595D01*
X6648273Y-14376595D02*
X6657796Y-14367071D01*
X6657796Y-14367071D02*
X6676844Y-14357548D01*
X6829225Y-14538500D02*
X6838749Y-14548024D01*
X6838749Y-14548024D02*
X6829225Y-14557548D01*
X6829225Y-14557548D02*
X6819701Y-14548024D01*
X6819701Y-14548024D02*
X6829225Y-14538500D01*
X6829225Y-14538500D02*
X6829225Y-14557548D01*
X6962558Y-14357548D02*
X6981606Y-14357548D01*
X6981606Y-14357548D02*
X7000654Y-14367071D01*
X7000654Y-14367071D02*
X7010177Y-14376595D01*
X7010177Y-14376595D02*
X7019701Y-14395643D01*
X7019701Y-14395643D02*
X7029225Y-14433738D01*
X7029225Y-14433738D02*
X7029225Y-14481357D01*
X7029225Y-14481357D02*
X7019701Y-14519452D01*
X7019701Y-14519452D02*
X7010177Y-14538500D01*
X7010177Y-14538500D02*
X7000654Y-14548024D01*
X7000654Y-14548024D02*
X6981606Y-14557548D01*
X6981606Y-14557548D02*
X6962558Y-14557548D01*
X6962558Y-14557548D02*
X6943511Y-14548024D01*
X6943511Y-14548024D02*
X6933987Y-14538500D01*
X6933987Y-14538500D02*
X6924463Y-14519452D01*
X6924463Y-14519452D02*
X6914939Y-14481357D01*
X6914939Y-14481357D02*
X6914939Y-14433738D01*
X6914939Y-14433738D02*
X6924463Y-14395643D01*
X6924463Y-14395643D02*
X6933987Y-14376595D01*
X6933987Y-14376595D02*
X6943511Y-14367071D01*
X6943511Y-14367071D02*
X6962558Y-14357548D01*
X7095892Y-14357548D02*
X7219701Y-14357548D01*
X7219701Y-14357548D02*
X7153034Y-14433738D01*
X7153034Y-14433738D02*
X7181606Y-14433738D01*
X7181606Y-14433738D02*
X7200654Y-14443262D01*
X7200654Y-14443262D02*
X7210177Y-14452786D01*
X7210177Y-14452786D02*
X7219701Y-14471833D01*
X7219701Y-14471833D02*
X7219701Y-14519452D01*
X7219701Y-14519452D02*
X7210177Y-14538500D01*
X7210177Y-14538500D02*
X7200654Y-14548024D01*
X7200654Y-14548024D02*
X7181606Y-14557548D01*
X7181606Y-14557548D02*
X7124463Y-14557548D01*
X7124463Y-14557548D02*
X7105415Y-14548024D01*
X7105415Y-14548024D02*
X7095892Y-14538500D01*
X7314939Y-14557548D02*
X7353034Y-14557548D01*
X7353034Y-14557548D02*
X7372082Y-14548024D01*
X7372082Y-14548024D02*
X7381606Y-14538500D01*
X7381606Y-14538500D02*
X7400654Y-14509929D01*
X7400654Y-14509929D02*
X7410177Y-14471833D01*
X7410177Y-14471833D02*
X7410177Y-14395643D01*
X7410177Y-14395643D02*
X7400654Y-14376595D01*
X7400654Y-14376595D02*
X7391130Y-14367071D01*
X7391130Y-14367071D02*
X7372082Y-14357548D01*
X7372082Y-14357548D02*
X7333987Y-14357548D01*
X7333987Y-14357548D02*
X7314939Y-14367071D01*
X7314939Y-14367071D02*
X7305415Y-14376595D01*
X7305415Y-14376595D02*
X7295892Y-14395643D01*
X7295892Y-14395643D02*
X7295892Y-14443262D01*
X7295892Y-14443262D02*
X7305415Y-14462310D01*
X7305415Y-14462310D02*
X7314939Y-14471833D01*
X7314939Y-14471833D02*
X7333987Y-14481357D01*
X7333987Y-14481357D02*
X7372082Y-14481357D01*
X7372082Y-14481357D02*
X7391130Y-14471833D01*
X7391130Y-14471833D02*
X7400654Y-14462310D01*
X7400654Y-14462310D02*
X7410177Y-14443262D01*
X7581606Y-14424214D02*
X7581606Y-14557548D01*
X7533987Y-14348024D02*
X7486368Y-14490881D01*
X7486368Y-14490881D02*
X7610177Y-14490881D01*
X7676844Y-14357548D02*
X7676844Y-14395643D01*
X7753035Y-14357548D02*
X7753035Y-14395643D01*
X8048273Y-14633738D02*
X8038749Y-14624214D01*
X8038749Y-14624214D02*
X8019701Y-14595643D01*
X8019701Y-14595643D02*
X8010177Y-14576595D01*
X8010177Y-14576595D02*
X8000654Y-14548024D01*
X8000654Y-14548024D02*
X7991130Y-14500405D01*
X7991130Y-14500405D02*
X7991130Y-14462310D01*
X7991130Y-14462310D02*
X8000654Y-14414690D01*
X8000654Y-14414690D02*
X8010177Y-14386119D01*
X8010177Y-14386119D02*
X8019701Y-14367071D01*
X8019701Y-14367071D02*
X8038749Y-14338500D01*
X8038749Y-14338500D02*
X8048273Y-14328976D01*
X8105416Y-14357548D02*
X8238749Y-14357548D01*
X8238749Y-14357548D02*
X8153035Y-14557548D01*
X8353035Y-14357548D02*
X8372082Y-14357548D01*
X8372082Y-14357548D02*
X8391130Y-14367071D01*
X8391130Y-14367071D02*
X8400654Y-14376595D01*
X8400654Y-14376595D02*
X8410178Y-14395643D01*
X8410178Y-14395643D02*
X8419701Y-14433738D01*
X8419701Y-14433738D02*
X8419701Y-14481357D01*
X8419701Y-14481357D02*
X8410178Y-14519452D01*
X8410178Y-14519452D02*
X8400654Y-14538500D01*
X8400654Y-14538500D02*
X8391130Y-14548024D01*
X8391130Y-14548024D02*
X8372082Y-14557548D01*
X8372082Y-14557548D02*
X8353035Y-14557548D01*
X8353035Y-14557548D02*
X8333987Y-14548024D01*
X8333987Y-14548024D02*
X8324463Y-14538500D01*
X8324463Y-14538500D02*
X8314939Y-14519452D01*
X8314939Y-14519452D02*
X8305416Y-14481357D01*
X8305416Y-14481357D02*
X8305416Y-14433738D01*
X8305416Y-14433738D02*
X8314939Y-14395643D01*
X8314939Y-14395643D02*
X8324463Y-14376595D01*
X8324463Y-14376595D02*
X8333987Y-14367071D01*
X8333987Y-14367071D02*
X8353035Y-14357548D01*
X8657797Y-14557548D02*
X8657797Y-14357548D01*
X8743511Y-14557548D02*
X8743511Y-14452786D01*
X8743511Y-14452786D02*
X8733987Y-14433738D01*
X8733987Y-14433738D02*
X8714940Y-14424214D01*
X8714940Y-14424214D02*
X8686368Y-14424214D01*
X8686368Y-14424214D02*
X8667320Y-14433738D01*
X8667320Y-14433738D02*
X8657797Y-14443262D01*
X8867320Y-14557548D02*
X8848273Y-14548024D01*
X8848273Y-14548024D02*
X8838749Y-14538500D01*
X8838749Y-14538500D02*
X8829225Y-14519452D01*
X8829225Y-14519452D02*
X8829225Y-14462310D01*
X8829225Y-14462310D02*
X8838749Y-14443262D01*
X8838749Y-14443262D02*
X8848273Y-14433738D01*
X8848273Y-14433738D02*
X8867320Y-14424214D01*
X8867320Y-14424214D02*
X8895892Y-14424214D01*
X8895892Y-14424214D02*
X8914940Y-14433738D01*
X8914940Y-14433738D02*
X8924463Y-14443262D01*
X8924463Y-14443262D02*
X8933987Y-14462310D01*
X8933987Y-14462310D02*
X8933987Y-14519452D01*
X8933987Y-14519452D02*
X8924463Y-14538500D01*
X8924463Y-14538500D02*
X8914940Y-14548024D01*
X8914940Y-14548024D02*
X8895892Y-14557548D01*
X8895892Y-14557548D02*
X8867320Y-14557548D01*
X9048273Y-14557548D02*
X9029225Y-14548024D01*
X9029225Y-14548024D02*
X9019701Y-14528976D01*
X9019701Y-14528976D02*
X9019701Y-14357548D01*
X9200654Y-14548024D02*
X9181606Y-14557548D01*
X9181606Y-14557548D02*
X9143511Y-14557548D01*
X9143511Y-14557548D02*
X9124463Y-14548024D01*
X9124463Y-14548024D02*
X9114940Y-14528976D01*
X9114940Y-14528976D02*
X9114940Y-14452786D01*
X9114940Y-14452786D02*
X9124463Y-14433738D01*
X9124463Y-14433738D02*
X9143511Y-14424214D01*
X9143511Y-14424214D02*
X9181606Y-14424214D01*
X9181606Y-14424214D02*
X9200654Y-14433738D01*
X9200654Y-14433738D02*
X9210178Y-14452786D01*
X9210178Y-14452786D02*
X9210178Y-14471833D01*
X9210178Y-14471833D02*
X9114940Y-14490881D01*
X9286368Y-14548024D02*
X9305416Y-14557548D01*
X9305416Y-14557548D02*
X9343511Y-14557548D01*
X9343511Y-14557548D02*
X9362559Y-14548024D01*
X9362559Y-14548024D02*
X9372082Y-14528976D01*
X9372082Y-14528976D02*
X9372082Y-14519452D01*
X9372082Y-14519452D02*
X9362559Y-14500405D01*
X9362559Y-14500405D02*
X9343511Y-14490881D01*
X9343511Y-14490881D02*
X9314940Y-14490881D01*
X9314940Y-14490881D02*
X9295892Y-14481357D01*
X9295892Y-14481357D02*
X9286368Y-14462310D01*
X9286368Y-14462310D02*
X9286368Y-14452786D01*
X9286368Y-14452786D02*
X9295892Y-14433738D01*
X9295892Y-14433738D02*
X9314940Y-14424214D01*
X9314940Y-14424214D02*
X9343511Y-14424214D01*
X9343511Y-14424214D02*
X9362559Y-14433738D01*
X9438749Y-14633738D02*
X9448273Y-14624214D01*
X9448273Y-14624214D02*
X9467321Y-14595643D01*
X9467321Y-14595643D02*
X9476844Y-14576595D01*
X9476844Y-14576595D02*
X9486368Y-14548024D01*
X9486368Y-14548024D02*
X9495892Y-14500405D01*
X9495892Y-14500405D02*
X9495892Y-14462310D01*
X9495892Y-14462310D02*
X9486368Y-14414690D01*
X9486368Y-14414690D02*
X9476844Y-14386119D01*
X9476844Y-14386119D02*
X9467321Y-14367071D01*
X9467321Y-14367071D02*
X9448273Y-14338500D01*
X9448273Y-14338500D02*
X9438749Y-14328976D01*
M02*
