M48
; DRILL file {KiCad 8.0.0} date 2024-11-02T12:10:52-0400
; FORMAT={-:-/ absolute / inch / decimal}
; #@! TF.CreationDate,2024-11-02T12:10:52-04:00
; #@! TF.GenerationSoftware,Kicad,Pcbnew,8.0.0
; #@! TF.FileFunction,Plated,1,2,PTH
FMAT,2
INCH
; #@! TA.AperFunction,Plated,PTH,ViaDrill
T1C0.0118
; #@! TA.AperFunction,Plated,PTH,ComponentDrill
T2C0.0394
%
G90
G05
T1
X3.5Y-4.8
T2
X2.5446Y-2.0964
X2.5446Y-2.1964
X2.5446Y-2.2964
X2.5446Y-2.3964
X2.5446Y-2.4964
X2.5446Y-2.5964
X2.5446Y-2.6964
X2.5446Y-2.7964
X2.5446Y-2.8964
X2.5446Y-2.9964
X2.5446Y-3.0964
X2.5446Y-3.1964
X2.5446Y-3.2964
X2.5446Y-3.3964
X2.5446Y-3.4964
X2.5446Y-3.5964
X2.5446Y-3.6964
X2.8Y-4.7
X2.8Y-4.8
X2.8Y-4.9
X2.8Y-5.0
X3.1Y-4.8
X3.1Y-4.9
X3.1Y-5.0
X3.1Y-5.1
X3.1446Y-2.0982
X3.1446Y-2.1982
X3.1446Y-2.2982
X3.1446Y-2.3982
X3.1446Y-2.4982
X3.1446Y-2.5982
X3.1446Y-2.6982
X3.1446Y-2.7982
X3.1446Y-2.8982
X3.1446Y-2.9982
X3.1446Y-3.0982
X3.1446Y-3.1982
X3.1446Y-3.2982
X3.1446Y-3.3982
X3.1446Y-3.4982
X3.1446Y-3.5982
X3.1446Y-3.6982
X3.318Y-2.5406
X3.318Y-2.9406
X3.367Y-4.7
X3.367Y-4.8
X3.367Y-4.9
X3.367Y-5.0
X3.367Y-5.1
X3.3757Y-3.6478
X3.4416Y-4.3913
X3.5148Y-2.5406
X3.5148Y-2.9406
X3.5556Y-5.1354
X3.5726Y-3.6478
X3.6384Y-4.3913
X3.6556Y-5.1354
X3.7556Y-5.1354
X3.8556Y-5.1354
X3.898Y-2.5406
X3.898Y-2.9406
X3.9556Y-5.1354
X3.9984Y-3.6417
X4.0948Y-2.5406
X4.0948Y-2.9406
X4.1016Y-4.3913
X4.1016Y-5.1413
X4.1953Y-3.6417
X4.2984Y-4.3913
X4.2984Y-5.1413
M30
