%TF.GenerationSoftware,KiCad,Pcbnew,8.0.0*%
%TF.CreationDate,2024-11-02T12:10:28-04:00*%
%TF.ProjectId,PCB_Draft_2,5043425f-4472-4616-9674-5f322e6b6963,rev?*%
%TF.SameCoordinates,Original*%
%TF.FileFunction,Soldermask,Bot*%
%TF.FilePolarity,Negative*%
%FSLAX46Y46*%
G04 Gerber Fmt 4.6, Leading zero omitted, Abs format (unit mm)*
G04 Created by KiCad (PCBNEW 8.0.0) date 2024-11-02 12:10:28*
%MOMM*%
%LPD*%
G01*
G04 APERTURE LIST*
%ADD10C,1.712000*%
%ADD11R,1.700000X1.700000*%
%ADD12O,1.700000X1.700000*%
G04 APERTURE END LIST*
D10*
%TO.C,SW13*%
X90743682Y-92654749D03*
X85743682Y-92654749D03*
%TD*%
D11*
%TO.C,J4*%
X79873417Y-93935455D03*
D12*
X79873417Y-91395455D03*
X79873417Y-88855455D03*
X79873417Y-86315455D03*
X79873417Y-83775455D03*
X79873417Y-81235455D03*
X79873417Y-78695455D03*
X79873417Y-76155455D03*
X79873417Y-73615455D03*
X79873417Y-71075455D03*
X79873417Y-68535455D03*
X79873417Y-65995455D03*
X79873417Y-63455455D03*
X79873417Y-60915455D03*
X79873417Y-58375455D03*
X79873417Y-55835455D03*
X79873417Y-53295455D03*
%TD*%
D10*
%TO.C,SW15*%
X87416000Y-111539427D03*
X92416000Y-111539427D03*
%TD*%
%TO.C,SW1*%
X84277054Y-64530823D03*
X89277054Y-64530823D03*
%TD*%
%TO.C,SW2*%
X84277054Y-74690823D03*
X89277054Y-74690823D03*
%TD*%
%TO.C,SW16*%
X101560425Y-92499983D03*
X106560425Y-92499983D03*
%TD*%
D11*
%TO.C,J1*%
X85523050Y-129540000D03*
D12*
X85523050Y-127000000D03*
X85523050Y-124460000D03*
X85523050Y-121920000D03*
X85523050Y-119380000D03*
%TD*%
D10*
%TO.C,SW4*%
X99009054Y-64530823D03*
X104009054Y-64530823D03*
%TD*%
%TO.C,SW14*%
X104180000Y-111539427D03*
X109180000Y-111539427D03*
%TD*%
%TO.C,SW7*%
X104180000Y-130589427D03*
X109180000Y-130589427D03*
%TD*%
D11*
%TO.C,J17*%
X71120000Y-119380000D03*
D12*
X71120000Y-121920000D03*
X71120000Y-124460000D03*
X71120000Y-127000000D03*
%TD*%
D11*
%TO.C,J2*%
X100471417Y-130438924D03*
D12*
X97931417Y-130438924D03*
X95391417Y-130438924D03*
X92851417Y-130438924D03*
X90311417Y-130438924D03*
%TD*%
D11*
%TO.C,J18*%
X78740000Y-121920000D03*
D12*
X78740000Y-124460000D03*
X78740000Y-127000000D03*
X78740000Y-129540000D03*
%TD*%
D10*
%TO.C,SW3*%
X99009054Y-74690823D03*
X104009054Y-74690823D03*
%TD*%
D11*
%TO.C,J3*%
X64633417Y-53248045D03*
D12*
X64633417Y-55788045D03*
X64633417Y-58328045D03*
X64633417Y-60868045D03*
X64633417Y-63408045D03*
X64633417Y-65948045D03*
X64633417Y-68488045D03*
X64633417Y-71028045D03*
X64633417Y-73568045D03*
X64633417Y-76108045D03*
X64633417Y-78648045D03*
X64633417Y-81188045D03*
X64633417Y-83728045D03*
X64633417Y-86268045D03*
X64633417Y-88808045D03*
X64633417Y-91348045D03*
X64633417Y-93888045D03*
%TD*%
M02*
